# MagicaVoxel @ Ephtracy

# group
g BPWMazeEscapeArm

# material
mtllib BPWMazeEscapeArm.mtl
usemtl palette

# normals
vn -1 0 0
vn 1 0 0
vn 0 0 1
vn 0 0 -1
vn 0 -1 0
vn 0 1 0

# texcoords
vt 0.0566406 0.5
vt 0.0605469 0.5
vt 0.978516 0.5
vt 0.994141 0.5

# verts
v -7 13 20
v -7 13 -8
v -7 25 20
v -7 25 -8
v -6 15 -8
v -6 15 -15
v -6 24 -8
v -6 24 -15
v -5 22 -15
v -5 22 -20
v -5 23 -18
v -5 23 -20
v -5 24 -15
v -5 24 -18
v -5 24 -20
v -3 22 -15
v -3 22 -20
v -3 24 -15
v -3 24 -20
v 5 15 -8
v 5 15 -15
v 5 24 -8
v 5 24 -15
v 6 13 20
v 6 13 -8
v 6 25 20
v 6 25 -8
v -7 13 20
v -7 25 20
v 6 13 20
v 6 25 20
v -7 13 -8
v -7 25 -8
v -6 15 -8
v -6 24 -8
v -5 15 -8
v 4 15 -8
v 5 15 -8
v 5 24 -8
v 6 13 -8
v 6 25 -8
v -6 15 -15
v -6 24 -15
v -5 22 -15
v -5 24 -15
v -3 22 -15
v -3 24 -15
v 5 15 -15
v 5 24 -15
v -5 22 -20
v -5 23 -20
v -5 24 -20
v -4 23 -20
v -4 24 -20
v -3 22 -20
v -3 24 -20
v -7 13 20
v 6 13 20
v -7 13 -8
v 6 13 -8
v -6 15 -8
v -5 15 -8
v 4 15 -8
v 5 15 -8
v -5 15 -14
v 4 15 -14
v -6 15 -15
v 5 15 -15
v -5 22 -15
v -3 22 -15
v -5 22 -20
v -3 22 -20
v -6 24 -8
v 5 24 -8
v -6 24 -15
v -5 24 -15
v -3 24 -15
v 5 24 -15
v -5 24 -18
v -4 24 -18
v -5 24 -20
v -4 24 -20
v -3 24 -20
v -7 25 20
v 6 25 20
v -7 25 -8
v 6 25 -8

# faces
f 3/4/1 2/4/1 1/4/1
f 4/4/1 2/4/1 3/4/1
f 7/2/1 6/2/1 5/2/1
f 8/2/1 6/2/1 7/2/1
f 11/2/1 10/2/1 9/2/1
f 12/2/1 10/2/1 11/2/1
f 13/2/1 11/2/1 9/2/1
f 14/1/1 12/1/1 11/1/1
f 14/2/1 11/2/1 13/2/1
f 15/1/1 12/1/1 14/1/1
f 16/2/2 17/2/2 18/2/2
f 18/2/2 17/2/2 19/2/2
f 20/2/2 21/2/2 22/2/2
f 22/2/2 21/2/2 23/2/2
f 24/4/2 25/4/2 26/4/2
f 26/4/2 25/4/2 27/4/2
f 30/4/3 29/4/3 28/4/3
f 31/4/3 29/4/3 30/4/3
f 32/4/4 33/4/4 34/4/4
f 34/4/4 33/4/4 35/4/4
f 32/4/4 34/4/4 36/4/4
f 32/4/4 36/4/4 37/4/4
f 32/4/4 37/4/4 38/4/4
f 35/4/4 33/4/4 39/4/4
f 32/4/4 38/4/4 40/4/4
f 38/4/4 39/4/4 40/4/4
f 39/4/4 33/4/4 41/4/4
f 40/4/4 39/4/4 41/4/4
f 42/2/4 43/2/4 44/2/4
f 44/2/4 43/2/4 45/2/4
f 42/2/4 44/2/4 46/2/4
f 42/2/4 46/2/4 48/2/4
f 46/2/4 47/2/4 48/2/4
f 48/2/4 47/2/4 49/2/4
f 50/2/4 51/2/4 53/2/4
f 51/1/4 52/1/4 53/1/4
f 53/1/4 52/1/4 54/1/4
f 50/2/4 53/2/4 55/2/4
f 53/2/4 54/2/4 55/2/4
f 55/2/4 54/2/4 56/2/4
f 59/4/5 58/4/5 57/4/5
f 60/4/5 58/4/5 59/4/5
f 65/2/5 62/2/5 61/2/5
f 65/3/5 63/3/5 62/3/5
f 66/2/5 64/2/5 63/2/5
f 66/3/5 63/3/5 65/3/5
f 67/2/5 65/2/5 61/2/5
f 67/2/5 66/2/5 65/2/5
f 68/2/5 64/2/5 66/2/5
f 68/2/5 66/2/5 67/2/5
f 71/2/5 70/2/5 69/2/5
f 72/2/5 70/2/5 71/2/5
f 73/2/6 74/2/6 75/2/6
f 75/2/6 74/2/6 76/2/6
f 76/2/6 74/2/6 77/2/6
f 77/2/6 74/2/6 78/2/6
f 76/2/6 77/2/6 79/2/6
f 79/2/6 77/2/6 80/2/6
f 79/1/6 80/1/6 81/1/6
f 80/2/6 77/2/6 82/2/6
f 81/1/6 80/1/6 82/1/6
f 82/2/6 77/2/6 83/2/6
f 84/4/6 85/4/6 86/4/6
f 86/4/6 85/4/6 87/4/6
